<?xml version="1.0" encoding="UTF-8" standalone="no"?><!DOCTYPE svg PUBLIC "-//W3C//DTD SVG 1.1//EN" "http://www.w3.org/Graphics/SVG/1.1/DTD/svg11.dtd"><svg width="100%" height="100%" viewBox="0 0 480 480" version="1.1" xmlns="http://www.w3.org/2000/svg" xmlns:xlink="http://www.w3.org/1999/xlink" xml:space="preserve" xmlns:serif="http://www.serif.com/" style="fill-rule:evenodd;clip-rule:evenodd;stroke-linejoin:round;stroke-miterlimit:1.41421;"><g id="red"><path d="M240,0l169.706,70.294l70.294,169.706l-70.294,169.706l-169.706,70.294l-169.706,-70.294l-70.294,-169.706l70.294,-169.706l169.706,-70.294l0,0Z" style="fill:#ff0058;"/><g id="logo"><clipPath id="_clip1"><path d="M240,0l169.706,70.294l70.294,169.706l-70.294,169.706l-169.706,70.294l-169.706,-70.294l-70.294,-169.706l70.294,-169.706l169.706,-70.294l0,0Z"/></clipPath><g clip-path="url(#_clip1)"><path d="M194.275,179.329l83.46,-27.357l47.435,11.964l37.625,2.291l-1.739,7.583l-23.804,5.297l-2.183,2.231l-15.805,15.149l31.63,13.908l-2.692,5.739l-42.159,-2.521l-16.238,11.799l20.733,30.192l-36.993,49.019l-110.759,23.405l-0.686,-8.097l85.462,-48.894l14.398,-47.38l-22.806,-24.898l11.685,-24.878l-49.399,8.121l-7.165,-2.673l0,0Zm120.081,-5.597l-12.527,5.853l0.118,-7.653l12.409,1.8Z" style="fill:#fefefe;"/><path d="M282.038,240.559c0,0 -24.229,6.589 -60.057,-42.11c4.031,43.024 -5.295,-3.416 -75.23,-23.956c25.195,19.573 59.693,35.728 -29.546,53.293c72.522,5.8 89.519,22.896 60.676,45.599c0.995,-0.043 32.492,-11.899 50.733,-10.553c14.515,1.07 27.407,10.057 27.407,10.057l1.691,-19.033l24.326,-13.297l0,0Z" style="fill:#f9cfdf;"/></g></g></g></svg>